<?xml version="1.0" encoding="UTF-8"?><svg id="Layer_2" xmlns="http://www.w3.org/2000/svg" viewBox="0 0 605.48 73.35"><defs><style>.cls-1{fill:#001e50;}</style></defs><g id="Construção"><g><g><g><polygon class="cls-1" points="362.88 50.27 362.88 55.14 372 55.14 372 59.67 362.88 59.67 362.88 65 374.45 65 374.45 69.66 357.27 69.66 357.27 45.6 374.45 45.6 374.45 50.27 362.88 50.27"/><path class="cls-1" d="M382.06,51.84v2.74h.07c.91-2.1,2.63-3.09,4.95-3.09s3.82,.98,4.88,3.09c.91-2.1,2.98-3.09,5.19-3.09,1.58,0,3.3,.56,4.35,1.82,1.19,1.4,.95,3.44,.95,5.23v11.12h-5.16v-9.44c0-.7,.07-2.46-.11-3.12-.28-1.12-1.12-1.44-2.21-1.44-.91,0-1.86,.53-2.25,1.37-.39,.84-.35,2.25-.35,3.19v9.44h-5.16v-9.44c0-1.86,.35-4.59-2.32-4.59s-2.6,2.67-2.6,4.59v9.44h-5.16v-17.82h4.91Z"/><path class="cls-1" d="M411.04,62.19h0c0,.98,.04,2.1,.6,2.98,.49,.77,1.23,1.23,2.17,1.23,2.91,0,2.91-3.72,2.91-5.65s0-5.72-2.84-5.72c-2.49,0-2.84,2.7-2.84,4.6v2.56Zm-5.23-16.59h5.16v8.49h.14c.88-1.75,2.35-2.6,4.35-2.6,5.09,0,6.63,5.05,6.63,9.26,0,4.67-1.86,9.26-7.23,9.26-2.56,0-3.79-.95-5.09-3.09-.63,.77-.84,1.79-1.16,2.74h-2.81v-24.06Z"/><path class="cls-1" d="M429.66,51.84v3.33h.07c.53-1.89,1.58-3.86,3.82-3.68l.88,.07v5.16c-3.93-.21-4.42,2.98-4.42,6.14v6.8h-5.16v-17.82h4.81Z"/><path class="cls-1" d="M446.12,61.14h0c-1.96,.21-5.58,.67-5.58,3.26,0,1.4,.84,2.35,2.28,2.35,1.05,0,2-.56,2.6-1.47,.74-1.12,.7-2.17,.7-3.44v-.7Zm.49,8.52c-.21-.91-.28-1.86-.25-2.77-1.47,2.1-3.02,3.12-5.68,3.12-3.16,0-5.61-1.68-5.61-5.05,0-2.63,1.65-4.42,4-5.3,2.03-.77,4.88-.91,7.05-1.12v-.42c0-.77,.07-1.68-.46-2.35-.46-.6-1.33-.84-2.1-.84-1.65,0-3.09,.84-3.09,2.6l-4.88-.46c.53-4.31,4.74-5.58,8.49-5.58,1.82,0,4.21,.42,5.65,1.61,1.82,1.47,1.65,3.44,1.65,5.58v8.31c0,.91,.07,1.79,.35,2.67h-5.12Z"/><path class="cls-1" d="M465.72,58.62c0-1.61-.84-3.19-2.7-3.19-2.84,0-3.19,2.81-3.19,5.09s.04,5.26,2.98,5.26c1.82,0,2.74-1.44,2.91-3.09l4.91,.28c-.42,4.42-3.75,7.05-8.1,7.05-5.4,0-8.59-3.82-8.59-9.09s3.3-9.44,8.91-9.44c4.14,0,7.44,2.67,7.79,6.84l-4.91,.28Z"/><path class="cls-1" d="M478.04,60.19h0c0,2.03-.03,6.38,2.91,6.38s3.05-3.51,3.05-5.65c0-1.4-.07-3.09-.56-4.42-.42-1.16-1.26-1.61-2.46-1.61-2.77,0-2.95,3.26-2.95,5.3m11.51,.7c0,5.09-3.33,9.12-8.59,9.12s-8.45-4.14-8.45-9.3,3.02-9.23,8.45-9.23,8.59,4.14,8.59,9.4Z"/><path class="cls-1" d="M492.24,51.84h4.88v3.02h.07c1.05-2.28,2.53-3.37,5.12-3.37,1.68,0,3.33,.53,4.38,1.96,.98,1.33,.98,3.58,.98,5.19v11.01h-5.16v-9.58c0-1.82,.25-4.49-2.35-4.49-.91,0-1.75,.53-2.17,1.33-.53,1.02-.6,2.03-.6,3.16v9.58h-5.16v-17.82Z"/></g><g><path class="cls-1" d="M302.55,60.02c1.07,0,2.11,.34,2.67,.6l-.48,1.85c-.5-.18-1.23-.42-1.93-.42-1.39,0-2.43,1.09-2.43,3.12s1.03,3.12,2.43,3.12c.7,0,1.43-.24,1.93-.42l.48,1.85c-.56,.26-1.61,.6-2.67,.6-3,0-4.71-2.09-4.71-5.15s1.71-5.15,4.71-5.15Z"/><path class="cls-1" d="M311.25,70.32c-2.98,0-4.61-2.23-4.61-5.15s1.63-5.15,4.61-5.15,4.63,2.23,4.63,5.15-1.57,5.15-4.63,5.15Zm0-2.03c1.35,0,2.09-1.17,2.09-3.12s-.74-3.12-2.09-3.12-2.07,1.17-2.07,3.12,.74,3.12,2.07,3.12Z"/><path class="cls-1" d="M320.12,60.32l.32,.93h.04c.48-.48,1.39-1.23,2.82-1.23,1.29,0,2.15,.54,2.7,1.45h.04c.5-.5,1.39-1.45,3.18-1.45,2.17,0,3.24,1.41,3.24,3.76v6.23h-2.47v-5.93c0-1.31-.4-2.03-1.55-2.03-.87,0-1.53,.54-1.95,.95,.06,.24,.06,.54,.06,.78v6.23h-2.47v-5.93c0-1.31-.4-2.03-1.55-2.03-.87,0-1.47,.46-1.89,.84v7.12h-2.47v-9.69h1.97Z"/><path class="cls-1" d="M345.51,70.02l-.34-.87h-.04c-.66,.54-1.81,1.17-3,1.17-1.99,0-3.08-1.29-3.08-3.06,0-2.25,1.73-3.1,4.3-3.1h1.53v-.44c0-1.41-1.13-1.67-1.73-1.67-1.07,0-2.13,.38-3.02,.76l-.66-1.89c1.03-.46,2.43-.91,3.82-.91,2.8,0,4.06,1.51,4.06,4v5.99h-1.85Zm-2.03-4.24c-1.35,0-2.05,.48-2.05,1.41,0,.72,.34,1.21,1.25,1.21,.74,0,1.71-.32,2.21-.66v-1.95h-1.41Z"/></g></g><path class="cls-1" d="M568.81,69.97c-18.24,0-33.19-15.06-33.19-33.29,0-4.1,.72-7.99,2.1-11.63l19.41,39.08c.26,.52,.56,.92,1.18,.92s.95-.42,1.18-.92l8.91-20.03c.1-.21,.21-.41,.41-.41s.31,.21,.41,.41l8.91,20.03c.23,.5,.56,.92,1.18,.92s.92-.41,1.18-.92l19.41-39.08c1.38,3.64,2.1,7.53,2.1,11.63,0,18.23-14.96,33.29-33.19,33.29m0-40.82c-.21,0-.31-.21-.41-.41l-10.45-23.46c3.38-1.23,7.07-1.9,10.86-1.9s7.48,.67,10.86,1.9l-10.45,23.46c-.1,.21-.2,.41-.41,.41m-10.6,24.07c-.21,0-.31-.21-.41-.41l-16.9-34.06c3.02-4.61,7.07-8.5,11.93-11.22l12.14,27.05c.21,.51,.51,.61,.92,.61h5.84c.41,0,.72-.1,.92-.61l12.14-27.05c4.87,2.71,8.91,6.61,11.93,11.22l-16.9,34.06c-.1,.21-.21,.41-.41,.41s-.31-.21-.41-.41l-6.35-14.55c-.21-.51-.51-.61-.92-.61h-5.84c-.41,0-.72,.1-.92,.61l-6.35,14.55c-.1,.21-.21,.41-.41,.41m10.6,20.13c20.28,0,36.67-16.39,36.67-36.67S589.09,0,568.81,0s-36.67,16.39-36.67,36.67,16.39,36.67,36.67,36.67"/><g><g><path class="cls-1" d="M11.84,4.49c2.25,0,4.65,.54,6.9,1.57l-1.32,3.93c-2.04-.89-3.58-1.25-5.58-1.25-4.33,0-6.65,3.4-6.65,8.44s2.32,8.44,6.65,8.44c2,0,3.54-.36,5.58-1.25l1.32,3.93c-2.25,1.04-4.65,1.57-6.9,1.57C4.18,29.88,0,24.76,0,17.18,0,9.6,4.18,4.49,11.84,4.49Z"/><path class="cls-1" d="M29.54,29.88c-5.9,0-9.08-4.15-9.08-9.15s3.18-9.15,9.08-9.15,9.12,4.15,9.12,9.15-3.11,9.15-9.12,9.15Zm0-3.97c2.54,0,4.18-1.72,4.18-5.19s-1.65-5.19-4.18-5.19-4.15,1.72-4.15,5.19c0,3.47,1.68,5.19,4.15,5.19Z"/><path class="cls-1" d="M45.74,12.1l.64,1.68h.07c1-.89,2.79-2.22,5.51-2.22,4.04,0,6.37,2.75,6.37,6.9v10.87h-4.83v-10.37c0-2.25-.97-3.43-3.07-3.43-1.65,0-2.97,.89-3.72,1.47v12.34h-4.83V12.11h3.86Z"/><path class="cls-1" d="M62.62,24.76c1.68,.86,3.65,1.47,5.54,1.47s2.72-.57,2.72-1.68c0-1.04-.82-1.43-2.36-1.82l-2.25-.54c-2.4-.57-4.68-1.93-4.68-5.08,0-3.4,2.68-5.54,7.15-5.54,2.61,0,4.43,.43,6.44,1.25l-1.32,3.43c-1.54-.57-3.29-1.04-4.97-1.04-1.82,0-2.61,.54-2.61,1.57s.79,1.36,2.22,1.75l2.18,.54c2.75,.68,4.9,2.11,4.9,5.15,0,3.58-2.86,5.65-7.26,5.65-2.97,0-5.08-.61-7.12-1.64l1.43-3.47Z"/><path class="cls-1" d="M86.83,29.88c-5.9,0-9.08-4.15-9.08-9.15s3.18-9.15,9.08-9.15,9.12,4.15,9.12,9.15-3.11,9.15-9.12,9.15Zm0-3.97c2.54,0,4.18-1.72,4.18-5.19s-1.65-5.19-4.18-5.19-4.15,1.72-4.15,5.19c0,3.47,1.68,5.19,4.15,5.19Zm5.76-21.74l-3.68,4.9h-4.22v-.36l2.82-4.86h5.08v.32Z"/><path class="cls-1" d="M103.06,12.1l.68,2.07h.07c.64-1.11,2.07-2.61,4.36-2.61,.61,0,1.29,.11,1.72,.21l-.43,4.04c-.54-.11-1.29-.14-1.72-.14-2,0-3.15,.93-3.76,1.68v11.98h-4.83V12.1h3.9Z"/><path class="cls-1" d="M120.15,11.57c2.11,0,4.22,.61,5.36,1.04l-.97,3.68c-1-.32-2.29-.75-3.83-.75-2.61,0-4.79,1.43-4.79,5.19s2.11,5.19,4.79,5.19c1.54,0,2.82-.43,3.83-.75l.97,3.68c-1.14,.43-3.25,1.04-5.36,1.04-5.87,0-9.15-3.58-9.15-9.15s3.29-9.15,9.15-9.15Z"/><path class="cls-1" d="M131.1,3.81c1.72,0,2.82,1.11,2.82,2.65s-1.11,2.65-2.82,2.65-2.79-1.11-2.79-2.65,1.11-2.65,2.79-2.65Zm-2.43,25.53V12.1h4.83V29.34h-4.83Z"/><path class="cls-1" d="M145.79,29.88c-5.9,0-9.08-4.15-9.08-9.15s3.18-9.15,9.08-9.15,9.12,4.15,9.12,9.15c0,5.01-3.11,9.15-9.12,9.15Zm0-3.97c2.54,0,4.18-1.72,4.18-5.19s-1.64-5.19-4.18-5.19-4.15,1.72-4.15,5.19c0,3.47,1.68,5.19,4.15,5.19Z"/><path class="cls-1" d="M182.31,21.8V5.02h4.97V29.34h-5.26l-10.33-16.77h-.11V29.34h-4.97V5.02h5.26l10.33,16.77h.11Z"/><path class="cls-1" d="M206.44,25.59c0,.54,.04,.64,.57,.64h1.25v3.29c-.75,.14-1.47,.25-2.5,.25-1.86,0-2.83-.71-3.43-2.04h-.07c-1.14,.97-3.43,2.15-5.54,2.15-3.86,0-5.83-2.29-5.83-5.44,0-3.83,2.43-5.65,8.51-5.65h2.32v-.79c0-2.15-1.89-2.47-2.93-2.47-1.89,0-4.04,.5-5.72,1.25l-1.14-3.68c1.82-.82,4.43-1.54,7.12-1.54,4.97,0,7.4,2.54,7.4,6.97v7.04h0Zm-6.54-3.68c-3.18,0-4.4,.82-4.4,2.11,0,1.43,.82,2.07,2.29,2.07,1.25,0,2.93-.46,3.93-1.18v-3h-1.82Z"/><path class="cls-1" d="M219.32,11.57c2.11,0,4.22,.61,5.36,1.04l-.97,3.68c-1-.32-2.29-.75-3.83-.75-2.61,0-4.79,1.43-4.79,5.19s2.11,5.19,4.79,5.19c1.54,0,2.83-.43,3.83-.75l.97,3.68c-1.14,.43-3.25,1.04-5.36,1.04-5.86,0-9.15-3.58-9.15-9.15s3.29-9.15,9.15-9.15Z"/><path class="cls-1" d="M230.26,3.81c1.72,0,2.83,1.11,2.83,2.65s-1.11,2.65-2.83,2.65-2.79-1.11-2.79-2.65,1.11-2.65,2.79-2.65Zm-2.43,25.53V12.1h4.83V29.34h-4.83Z"/><path class="cls-1" d="M244.96,29.88c-5.9,0-9.08-4.15-9.08-9.15s3.18-9.15,9.08-9.15,9.12,4.15,9.12,9.15c0,5.01-3.11,9.15-9.12,9.15Zm0-3.97c2.54,0,4.18-1.72,4.18-5.19s-1.64-5.19-4.18-5.19-4.15,1.72-4.15,5.19c0,3.47,1.68,5.19,4.15,5.19Z"/><path class="cls-1" d="M261.16,12.1l.64,1.68h.07c1-.89,2.79-2.22,5.51-2.22,4.04,0,6.37,2.75,6.37,6.9v10.87h-4.83v-10.37c0-2.25-.97-3.43-3.08-3.43-1.64,0-2.97,.89-3.72,1.47v12.34h-4.83V12.11h3.86Z"/><path class="cls-1" d="M292.16,25.59c0,.54,.04,.64,.57,.64h1.25v3.29c-.75,.14-1.47,.25-2.5,.25-1.86,0-2.83-.71-3.43-2.04h-.07c-1.14,.97-3.43,2.15-5.54,2.15-3.86,0-5.83-2.29-5.83-5.44,0-3.83,2.43-5.65,8.51-5.65h2.32v-.79c0-2.15-1.89-2.47-2.93-2.47-1.89,0-4.04,.5-5.72,1.25l-1.14-3.68c1.82-.82,4.43-1.54,7.12-1.54,4.97,0,7.4,2.54,7.4,6.97v7.04h0Zm-6.55-3.68c-3.18,0-4.4,.82-4.4,2.11,0,1.43,.82,2.07,2.29,2.07,1.25,0,2.93-.46,3.93-1.18v-3h-1.82Z"/><path class="cls-1" d="M301.53,4.31V25.48c0,.54,.04,.64,.57,.64h1.89v3.29c-.75,.14-1.82,.25-2.86,.25-3.29,0-4.43-1.61-4.43-5.04V4.31h4.83Z"/></g><g><path class="cls-1" d="M334.86,5.38l-8.58,23.96h-6.04l-8.58-23.96v-.36h5.4l6.19,19.1h.11l6.11-19.1h5.4v.36h0Z"/><path class="cls-1" d="M342.8,29.88c-5.9,0-9.08-4.15-9.08-9.15s3.18-9.15,9.08-9.15,9.12,4.15,9.12,9.15-3.11,9.15-9.12,9.15Zm0-3.97c2.54,0,4.18-1.72,4.18-5.18s-1.64-5.18-4.18-5.18-4.15,1.72-4.15,5.18,1.68,5.18,4.15,5.18Z"/><path class="cls-1" d="M360.42,4.31V25.48c0,.54,.04,.64,.57,.64h1.89v3.29c-.75,.14-1.82,.25-2.86,.25-3.29,0-4.43-1.61-4.43-5.04V4.31h4.83Z"/><path class="cls-1" d="M370.72,21.37v7.98h-4.83V4.31h4.83v15.55h.07l6.04-7.76h5.26v.36l-6.54,8.01,6.87,8.51v.36h-5.47l-6.15-7.98h-.07Z"/><path class="cls-1" d="M385.63,24.77c1.68,.86,3.65,1.47,5.54,1.47s2.72-.57,2.72-1.68c0-1.04-.82-1.43-2.36-1.82l-2.25-.54c-2.4-.57-4.68-1.93-4.68-5.08,0-3.4,2.68-5.54,7.15-5.54,2.61,0,4.43,.43,6.44,1.25l-1.32,3.43c-1.54-.57-3.29-1.04-4.97-1.04-1.82,0-2.61,.54-2.61,1.57s.79,1.36,2.22,1.75l2.18,.54c2.75,.68,4.9,2.11,4.9,5.15,0,3.58-2.86,5.65-7.26,5.65-2.97,0-5.08-.61-7.12-1.64l1.43-3.47Z"/><path class="cls-1" d="M429.12,12.47l-5.15,16.88h-5.26l-3.93-12.41h-.07l-3.93,12.41h-5.26l-5.15-16.88v-.36h4.83l3.18,11.94h.07l3.68-11.94h5.22l3.68,11.94h.07l3.18-11.94h4.83v.36h0Z"/><path class="cls-1" d="M445.56,25.59c0,.54,.04,.64,.57,.64h1.25v3.29c-.75,.14-1.47,.25-2.5,.25-1.86,0-2.83-.71-3.43-2.04h-.07c-1.14,.97-3.43,2.15-5.54,2.15-3.86,0-5.83-2.29-5.83-5.44,0-3.83,2.43-5.65,8.51-5.65h2.32v-.79c0-2.15-1.9-2.47-2.93-2.47-1.9,0-4.04,.5-5.72,1.25l-1.14-3.68c1.82-.82,4.43-1.54,7.12-1.54,4.97,0,7.4,2.54,7.4,6.97v7.04h0Zm-6.54-3.68c-3.18,0-4.4,.82-4.4,2.11,0,1.43,.82,2.07,2.29,2.07,1.25,0,2.93-.46,3.93-1.18v-3h-1.83Z"/><path class="cls-1" d="M467.16,28.24c0,5.79-3.25,8.73-8.9,8.73-2.83,0-5.08-.79-6.76-1.68l1.4-3.54c1.43,.75,3.22,1.25,5.36,1.25,2.83,0,4.08-1,4.08-3.86v-1.29h-.07c-1.04,.75-2.47,1.72-4.9,1.72-4.97,0-7.51-3.93-7.51-8.94s2.54-9.05,7.51-9.05c2.58,0,4.04,1.22,5.33,2.11h.07l.64-1.57h3.76V28.24h0Zm-4.83-11.62c-.97-.57-2.22-1.07-3.47-1.07-2.86,0-4.08,2-4.08,5.08s1.22,4.97,4.08,4.97c1.25,0,2.5-.43,3.47-.97v-8.01Z"/><path class="cls-1" d="M475.64,22.12c.18,2.43,1.75,3.9,4.33,3.9,2,0,3.83-.46,5.51-1.07l1.11,3.47c-1.72,.82-4.22,1.47-6.97,1.47-5.97,0-8.87-4.11-8.87-9.19s3-9.12,8.62-9.12,8.05,3.4,8.05,7.44c0,1.11-.14,2.5-.25,3.11h-11.52Zm7.33-3c.04-.18,.04-.36,.04-.54,0-1.93-.89-3.5-3.61-3.5-2.43,0-3.65,1.97-3.76,4.04h7.33Z"/><path class="cls-1" d="M495.09,12.11l.64,1.68h.07c1-.89,2.79-2.22,5.51-2.22,4.04,0,6.36,2.75,6.36,6.9v10.87h-4.83v-10.37c0-2.25-.97-3.43-3.08-3.43-1.65,0-2.97,.89-3.72,1.47v12.34h-4.83V12.11h3.86Z"/></g></g></g></g></svg>